<mxfile host="Electron" modified="2024-04-18T10:00:22.056Z" agent="Mozilla/5.0 (Windows NT 10.0; Win64; x64) AppleWebKit/537.36 (KHTML, like Gecko) draw.io/24.2.5 Chrome/120.0.6099.109 Electron/28.1.0 Safari/537.36" etag="nfxBpIMLACTV_0icmXGV" version="24.2.5" type="device" pages="2">
  <diagram name="Страница — 1" id="V2CHiMXyhFVQBLft8cxn">
    <mxGraphModel dx="1036" dy="614" grid="1" gridSize="10" guides="1" tooltips="1" connect="1" arrows="1" fold="1" page="1" pageScale="1" pageWidth="1169" pageHeight="827" math="0" shadow="0">
      <root>
        <mxCell id="0" />
        <mxCell id="1" parent="0" />
        <mxCell id="HITwWoTHHbaY5sGVRUmn-1" value="Индивидуальный план работы преподавателя" style="strokeWidth=1;shadow=0;dashed=0;align=center;html=1;shape=mxgraph.mockup.containers.window;align=left;verticalAlign=top;spacingLeft=8;strokeColor2=#008cff;strokeColor3=#c4c4c4;fontColor=#666666;mainText=;fontSize=17;labelBackgroundColor=none;whiteSpace=wrap;" vertex="1" parent="1">
          <mxGeometry x="40" y="30" width="760" height="600" as="geometry" />
        </mxCell>
        <mxCell id="HITwWoTHHbaY5sGVRUmn-2" value="" style="strokeWidth=1;shadow=0;dashed=0;align=center;html=1;shape=mxgraph.mockup.containers.marginRect2;rectMarginTop=32;strokeColor=#666666;gradientColor=none;whiteSpace=wrap;" vertex="1" parent="1">
          <mxGeometry x="50" y="150" width="740" height="450" as="geometry" />
        </mxCell>
        <mxCell id="HITwWoTHHbaY5sGVRUmn-3" value="УМР" style="strokeColor=inherit;fillColor=inherit;gradientColor=inherit;strokeWidth=1;shadow=0;dashed=0;align=center;html=1;shape=mxgraph.mockup.containers.rrect;rSize=0;fontSize=17;fontColor=#666666;gradientColor=none;" vertex="1" parent="HITwWoTHHbaY5sGVRUmn-2">
          <mxGeometry width="60" height="25" relative="1" as="geometry">
            <mxPoint x="10" as="offset" />
          </mxGeometry>
        </mxCell>
        <mxCell id="HITwWoTHHbaY5sGVRUmn-4" value="ОМР" style="strokeWidth=1;shadow=0;dashed=0;align=center;html=1;shape=mxgraph.mockup.containers.rrect;rSize=0;fontSize=17;fontColor=#ffffff;strokeColor=#008cff;fillColor=#008cff;" vertex="1" parent="HITwWoTHHbaY5sGVRUmn-2">
          <mxGeometry width="60" height="25" relative="1" as="geometry">
            <mxPoint x="75" as="offset" />
          </mxGeometry>
        </mxCell>
        <mxCell id="HITwWoTHHbaY5sGVRUmn-5" value="НИР" style="strokeColor=inherit;fillColor=inherit;gradientColor=inherit;strokeWidth=1;shadow=0;dashed=0;align=center;html=1;shape=mxgraph.mockup.containers.rrect;rSize=0;fontSize=17;fontColor=#666666;gradientColor=none;" vertex="1" parent="HITwWoTHHbaY5sGVRUmn-2">
          <mxGeometry width="60" height="25" relative="1" as="geometry">
            <mxPoint x="140" as="offset" />
          </mxGeometry>
        </mxCell>
        <mxCell id="HITwWoTHHbaY5sGVRUmn-6" value="" style="strokeWidth=1;shadow=0;dashed=0;align=center;html=1;shape=mxgraph.mockup.containers.topButton;rSize=5;strokeColor=#008cff;fillColor=#008cff;gradientColor=none;resizeWidth=1;movable=0;deletable=1;" vertex="1" parent="HITwWoTHHbaY5sGVRUmn-2">
          <mxGeometry width="740" height="7" relative="1" as="geometry">
            <mxPoint y="25" as="offset" />
          </mxGeometry>
        </mxCell>
        <mxCell id="HITwWoTHHbaY5sGVRUmn-19" value="Вид работ" style="text;html=1;align=center;verticalAlign=middle;whiteSpace=wrap;rounded=0;strokeColor=default;" vertex="1" parent="HITwWoTHHbaY5sGVRUmn-2">
          <mxGeometry x="10" y="40" width="150" height="30" as="geometry" />
        </mxCell>
        <mxCell id="HITwWoTHHbaY5sGVRUmn-20" value="Описание" style="text;html=1;align=center;verticalAlign=middle;whiteSpace=wrap;rounded=0;strokeColor=default;" vertex="1" parent="HITwWoTHHbaY5sGVRUmn-2">
          <mxGeometry x="160" y="40" width="290" height="30" as="geometry" />
        </mxCell>
        <mxCell id="HITwWoTHHbaY5sGVRUmn-21" value="План (ч.)" style="text;html=1;align=center;verticalAlign=middle;whiteSpace=wrap;rounded=0;strokeColor=default;" vertex="1" parent="HITwWoTHHbaY5sGVRUmn-2">
          <mxGeometry x="450" y="40" width="80" height="30" as="geometry" />
        </mxCell>
        <mxCell id="HITwWoTHHbaY5sGVRUmn-22" value="Срок" style="text;html=1;align=center;verticalAlign=middle;whiteSpace=wrap;rounded=0;strokeColor=default;" vertex="1" parent="HITwWoTHHbaY5sGVRUmn-2">
          <mxGeometry x="530" y="40" width="80" height="30" as="geometry" />
        </mxCell>
        <mxCell id="HITwWoTHHbaY5sGVRUmn-23" value="Статус" style="text;html=1;align=center;verticalAlign=middle;whiteSpace=wrap;rounded=0;strokeColor=default;" vertex="1" parent="HITwWoTHHbaY5sGVRUmn-2">
          <mxGeometry x="610" y="40" width="100" height="30" as="geometry" />
        </mxCell>
        <mxCell id="HITwWoTHHbaY5sGVRUmn-26" value="Добавить" style="strokeWidth=1;shadow=0;dashed=0;align=center;html=1;shape=mxgraph.mockup.buttons.button;strokeColor=#666666;fontColor=#ffffff;mainText=;buttonStyle=round;fontSize=17;fontStyle=1;fillColor=#008cff;whiteSpace=wrap;" vertex="1" parent="HITwWoTHHbaY5sGVRUmn-2">
          <mxGeometry x="590" y="410" width="140" height="30" as="geometry" />
        </mxCell>
        <mxCell id="HITwWoTHHbaY5sGVRUmn-27" value="Разработка нового курса лекций" style="text;html=1;align=center;verticalAlign=middle;whiteSpace=wrap;rounded=0;strokeColor=default;" vertex="1" parent="HITwWoTHHbaY5sGVRUmn-2">
          <mxGeometry x="10" y="70" width="150" height="100" as="geometry" />
        </mxCell>
        <mxCell id="HITwWoTHHbaY5sGVRUmn-28" value="Разработка курса лекций по дисциплине &quot;Методы обработки больших данных&quot; для образовательной программы подготовки бакалавров &quot;Технологии интеллектуальных автоматизированных систем&quot;" style="text;html=1;align=center;verticalAlign=middle;whiteSpace=wrap;rounded=0;strokeColor=default;" vertex="1" parent="HITwWoTHHbaY5sGVRUmn-2">
          <mxGeometry x="160" y="70" width="290" height="70" as="geometry" />
        </mxCell>
        <mxCell id="HITwWoTHHbaY5sGVRUmn-29" value="36" style="text;html=1;align=center;verticalAlign=middle;whiteSpace=wrap;rounded=0;strokeColor=default;" vertex="1" parent="HITwWoTHHbaY5sGVRUmn-2">
          <mxGeometry x="450" y="70" width="80" height="100" as="geometry" />
        </mxCell>
        <mxCell id="HITwWoTHHbaY5sGVRUmn-30" value="01.10.2023" style="text;html=1;align=center;verticalAlign=middle;whiteSpace=wrap;rounded=0;strokeColor=default;" vertex="1" parent="HITwWoTHHbaY5sGVRUmn-2">
          <mxGeometry x="530" y="70" width="80" height="100" as="geometry" />
        </mxCell>
        <mxCell id="HITwWoTHHbaY5sGVRUmn-31" value="Выполнено" style="text;html=1;align=center;verticalAlign=middle;whiteSpace=wrap;rounded=0;strokeColor=default;" vertex="1" parent="HITwWoTHHbaY5sGVRUmn-2">
          <mxGeometry x="610" y="70" width="100" height="100" as="geometry" />
        </mxCell>
        <mxCell id="HITwWoTHHbaY5sGVRUmn-32" value="Примечание: \\Кафедра КИТП\Дисциплины\МОБД" style="text;html=1;align=center;verticalAlign=middle;whiteSpace=wrap;rounded=0;strokeColor=default;" vertex="1" parent="HITwWoTHHbaY5sGVRUmn-2">
          <mxGeometry x="160" y="140" width="290" height="30" as="geometry" />
        </mxCell>
        <mxCell id="HITwWoTHHbaY5sGVRUmn-33" value="Редактировать" style="strokeWidth=1;shadow=0;dashed=0;align=center;html=1;shape=mxgraph.mockup.buttons.button;strokeColor=#666666;fontColor=#ffffff;mainText=;buttonStyle=round;fontSize=17;fontStyle=1;fillColor=#008cff;whiteSpace=wrap;" vertex="1" parent="HITwWoTHHbaY5sGVRUmn-2">
          <mxGeometry x="440" y="410" width="140" height="30" as="geometry" />
        </mxCell>
        <mxCell id="HITwWoTHHbaY5sGVRUmn-7" value="Здравствуйте, Иван Иванович!" style="text;html=1;align=center;verticalAlign=middle;whiteSpace=wrap;rounded=0;" vertex="1" parent="1">
          <mxGeometry x="50" y="70" width="730" height="30" as="geometry" />
        </mxCell>
        <mxCell id="HITwWoTHHbaY5sGVRUmn-8" value="2023-2024 учебный год" style="text;html=1;align=center;verticalAlign=middle;whiteSpace=wrap;rounded=0;" vertex="1" parent="1">
          <mxGeometry x="50" y="110" width="190" height="30" as="geometry" />
        </mxCell>
        <mxCell id="HITwWoTHHbaY5sGVRUmn-24" value="" style="endArrow=none;dashed=1;html=1;rounded=0;exitX=1;exitY=0.75;exitDx=0;exitDy=0;entryX=0;entryY=0.5;entryDx=0;entryDy=0;" edge="1" parent="1" source="HITwWoTHHbaY5sGVRUmn-23" target="HITwWoTHHbaY5sGVRUmn-25">
          <mxGeometry width="50" height="50" relative="1" as="geometry">
            <mxPoint x="870" y="170" as="sourcePoint" />
            <mxPoint x="870" y="50" as="targetPoint" />
          </mxGeometry>
        </mxCell>
        <mxCell id="HITwWoTHHbaY5sGVRUmn-25" value="&lt;h1 style=&quot;margin-top: 0px;&quot;&gt;Статус&lt;/h1&gt;&lt;p&gt;Назначено, в работе, выполнено, &lt;i&gt;утверждено&lt;/i&gt;&lt;/p&gt;" style="text;html=1;whiteSpace=wrap;overflow=hidden;rounded=0;" vertex="1" parent="1">
          <mxGeometry x="900" y="25" width="180" height="85" as="geometry" />
        </mxCell>
        <mxCell id="FwX9pdAOZLaIxvs4hcSe-1" value="&lt;h1 style=&quot;margin-top: 0px;&quot;&gt;API&lt;/h1&gt;&lt;p&gt;- Добавить задачу&lt;/p&gt;&lt;p&gt;- Изменить статус&amp;nbsp;&lt;/p&gt;" style="text;html=1;whiteSpace=wrap;overflow=hidden;rounded=0;" vertex="1" parent="1">
          <mxGeometry x="900" y="150" width="180" height="110" as="geometry" />
        </mxCell>
      </root>
    </mxGraphModel>
  </diagram>
  <diagram id="xiLTNmagSGFWaYng3OWT" name="Страница — 2">
    <mxGraphModel dx="1036" dy="614" grid="1" gridSize="10" guides="1" tooltips="1" connect="1" arrows="1" fold="1" page="1" pageScale="1" pageWidth="1169" pageHeight="827" math="0" shadow="0">
      <root>
        <mxCell id="0" />
        <mxCell id="1" parent="0" />
        <mxCell id="pDZaCvJT3wJ4G2SVISkD-1" value="Индивидуальный план работы преподавателя" style="strokeWidth=1;shadow=0;dashed=0;align=center;html=1;shape=mxgraph.mockup.containers.window;align=left;verticalAlign=top;spacingLeft=8;strokeColor2=#008cff;strokeColor3=#c4c4c4;fontColor=#666666;mainText=;fontSize=17;labelBackgroundColor=none;whiteSpace=wrap;" vertex="1" parent="1">
          <mxGeometry x="40" y="30" width="760" height="600" as="geometry" />
        </mxCell>
        <mxCell id="pDZaCvJT3wJ4G2SVISkD-20" value="Здравствуйте, Иван Иванович!" style="text;html=1;align=center;verticalAlign=middle;whiteSpace=wrap;rounded=0;" vertex="1" parent="1">
          <mxGeometry x="50" y="70" width="730" height="30" as="geometry" />
        </mxCell>
        <mxCell id="pDZaCvJT3wJ4G2SVISkD-21" value="2023-2024 учебный год" style="text;html=1;align=center;verticalAlign=middle;whiteSpace=wrap;rounded=0;" vertex="1" parent="1">
          <mxGeometry x="50" y="110" width="190" height="30" as="geometry" />
        </mxCell>
        <mxCell id="pDZaCvJT3wJ4G2SVISkD-23" value="Вид работ" style="text;html=1;align=center;verticalAlign=middle;whiteSpace=wrap;rounded=0;strokeColor=default;" vertex="1" parent="1">
          <mxGeometry x="70" y="140" width="130" height="30" as="geometry" />
        </mxCell>
        <mxCell id="pDZaCvJT3wJ4G2SVISkD-24" value="Количество задач" style="text;html=1;align=center;verticalAlign=middle;whiteSpace=wrap;rounded=0;strokeColor=default;" vertex="1" parent="1">
          <mxGeometry x="200" y="140" width="120" height="30" as="geometry" />
        </mxCell>
        <mxCell id="pDZaCvJT3wJ4G2SVISkD-25" value="Назначено" style="text;html=1;align=center;verticalAlign=middle;whiteSpace=wrap;rounded=0;strokeColor=default;" vertex="1" parent="1">
          <mxGeometry x="320" y="140" width="90" height="30" as="geometry" />
        </mxCell>
        <mxCell id="pDZaCvJT3wJ4G2SVISkD-26" value="В работе" style="text;html=1;align=center;verticalAlign=middle;whiteSpace=wrap;rounded=0;strokeColor=default;" vertex="1" parent="1">
          <mxGeometry x="410" y="140" width="90" height="30" as="geometry" />
        </mxCell>
        <mxCell id="pDZaCvJT3wJ4G2SVISkD-27" value="Выполнено" style="text;html=1;align=center;verticalAlign=middle;whiteSpace=wrap;rounded=0;strokeColor=default;" vertex="1" parent="1">
          <mxGeometry x="500" y="140" width="80" height="30" as="geometry" />
        </mxCell>
        <mxCell id="pDZaCvJT3wJ4G2SVISkD-28" value="Истекает срок" style="text;html=1;align=center;verticalAlign=middle;whiteSpace=wrap;rounded=0;strokeColor=default;" vertex="1" parent="1">
          <mxGeometry x="580" y="140" width="110" height="30" as="geometry" />
        </mxCell>
        <mxCell id="OVyiZblgufKPjWeirQok-1" value="Открыть план" style="strokeWidth=1;shadow=0;dashed=0;align=center;html=1;shape=mxgraph.mockup.buttons.button;strokeColor=#666666;fontColor=#ffffff;mainText=;buttonStyle=round;fontSize=17;fontStyle=1;fillColor=#008cff;whiteSpace=wrap;" vertex="1" parent="1">
          <mxGeometry x="640" y="580" width="140" height="30" as="geometry" />
        </mxCell>
        <mxCell id="Nr7QrA5uTH8O5AScuBQQ-1" value="УМР" style="text;html=1;align=center;verticalAlign=middle;whiteSpace=wrap;rounded=0;strokeColor=default;" vertex="1" parent="1">
          <mxGeometry x="70" y="170" width="130" height="30" as="geometry" />
        </mxCell>
        <mxCell id="h-mro1ZAkRti-fUlWnJS-1" value="1" style="text;html=1;align=center;verticalAlign=middle;whiteSpace=wrap;rounded=0;strokeColor=default;" vertex="1" parent="1">
          <mxGeometry x="200" y="170" width="120" height="30" as="geometry" />
        </mxCell>
        <mxCell id="h-mro1ZAkRti-fUlWnJS-2" value="0" style="text;html=1;align=center;verticalAlign=middle;whiteSpace=wrap;rounded=0;strokeColor=default;" vertex="1" parent="1">
          <mxGeometry x="320" y="170" width="90" height="30" as="geometry" />
        </mxCell>
        <mxCell id="h-mro1ZAkRti-fUlWnJS-3" value="0" style="text;html=1;align=center;verticalAlign=middle;whiteSpace=wrap;rounded=0;strokeColor=default;" vertex="1" parent="1">
          <mxGeometry x="410" y="170" width="90" height="30" as="geometry" />
        </mxCell>
        <mxCell id="h-mro1ZAkRti-fUlWnJS-4" value="1" style="text;html=1;align=center;verticalAlign=middle;whiteSpace=wrap;rounded=0;strokeColor=default;" vertex="1" parent="1">
          <mxGeometry x="500" y="170" width="80" height="30" as="geometry" />
        </mxCell>
        <mxCell id="h-mro1ZAkRti-fUlWnJS-5" value="0" style="text;html=1;align=center;verticalAlign=middle;whiteSpace=wrap;rounded=0;strokeColor=default;" vertex="1" parent="1">
          <mxGeometry x="580" y="170" width="110" height="30" as="geometry" />
        </mxCell>
      </root>
    </mxGraphModel>
  </diagram>
</mxfile>
